<svg id="Layer_1" width="304px" height="80px" data-name="Layer 1" xmlns="http://www.w3.org/2000/svg" viewBox="0 0 402.6 105.92"><defs><style>.cls-1{fill:#35aa53;}.cls-2{fill:#fff;}.cls-3{opacity:0.6;}</style></defs><title>1c29ef477f_logo.ai2.ai5</title><g id="_Group_" data-name="&lt;Group&gt;"><path id="_Compound_Path_" data-name="&lt;Compound Path&gt;" class="cls-1" d="M229.3,206.1v7.24h2.36a5,5,0,0,1,3.37.91,3.26,3.26,0,0,1,0,4.72,5,5,0,0,1-3.37.91h-9.92a5,5,0,0,1-3.36-.91,3.07,3.07,0,0,1-1-2.38,3,3,0,0,1,1-2.34,5,5,0,0,1,3.35-.91h1V187.75h-1a5,5,0,0,1-3.36-.91,3.3,3.3,0,0,1,0-4.75,5,5,0,0,1,3.36-.91l9.92,0a5.08,5.08,0,0,1,3.37.89,3,3,0,0,1,1,2.36,3.07,3.07,0,0,1-1,2.38,5,5,0,0,1-3.37.91H229.3v9.7l11.62-10a5.12,5.12,0,0,1-1.41-1.37,3,3,0,0,1-.38-1.56,3.16,3.16,0,0,1,1-2.43,5,5,0,0,1,3.36-.92l6.67,0a5.1,5.1,0,0,1,3.37.89,3,3,0,0,1,1,2.36,3.08,3.08,0,0,1-1,2.37,4.58,4.58,0,0,1-3.15.92L238.65,198a20.9,20.9,0,0,1,6.18,5.75,40.76,40.76,0,0,1,5.12,9.57h1.75a4.92,4.92,0,0,1,3.34.91,3.3,3.3,0,0,1,0,4.72,4.88,4.88,0,0,1-3.35.91h-5.93a97.85,97.85,0,0,0-4.47-9.32,21.37,21.37,0,0,0-3.75-5.25,13.71,13.71,0,0,0-4.23-2.63Z" transform="translate(-117.16 -146.78)"/><path id="_Compound_Path_2" data-name="&lt;Compound Path&gt;" class="cls-1" d="M271.23,203.74v9.6h16.68V209.8a5,5,0,0,1,.91-3.37,3.06,3.06,0,0,1,2.38-1,3,3,0,0,1,2.34,1,5,5,0,0,1,.91,3.37v10.08H263.66a5,5,0,0,1-3.36-.91,3.07,3.07,0,0,1-1-2.38,3,3,0,0,1,1-2.34,5,5,0,0,1,3.35-.91h1V187.75h-1a5,5,0,0,1-3.36-.91,3.3,3.3,0,0,1,0-4.75,5,5,0,0,1,3.36-.91l29.36,0v9.95a5,5,0,0,1-.9,3.34,3,3,0,0,1-2.36,1,3.05,3.05,0,0,1-2.37-1,4.87,4.87,0,0,1-.91-3.35v-3.41H271.23v9.44H277a7,7,0,0,1,.48-3.28,3.14,3.14,0,0,1,2.8-1.57,3,3,0,0,1,2.35,1,5,5,0,0,1,.91,3.37v7.53a5.52,5.52,0,0,1-.51,2.87,3.17,3.17,0,0,1-2.75,1.5,3.12,3.12,0,0,1-2.8-1.57,7.14,7.14,0,0,1-.48-3.31Z" transform="translate(-117.16 -146.78)"/><path id="_Compound_Path_3" data-name="&lt;Compound Path&gt;" class="cls-1" d="M309.13,203.74v9.6h16.69V209.8a5,5,0,0,1,.91-3.37,3.28,3.28,0,0,1,4.72,0,5,5,0,0,1,.91,3.37v10.08H301.57a5,5,0,0,1-3.37-.91,3.06,3.06,0,0,1-1-2.38,3,3,0,0,1,1-2.34,5,5,0,0,1,3.35-.91h1V187.75h-1a5,5,0,0,1-3.37-.91,3.32,3.32,0,0,1,0-4.75,5,5,0,0,1,3.37-.91l29.35,0v9.95a5,5,0,0,1-.89,3.34,3,3,0,0,1-2.36,1,3.09,3.09,0,0,1-2.38-1,4.92,4.92,0,0,1-.91-3.35v-3.41H309.13v9.44h5.74a7,7,0,0,1,.48-3.28,3.16,3.16,0,0,1,2.81-1.57,3,3,0,0,1,2.35,1,5,5,0,0,1,.91,3.37v7.53a5.4,5.4,0,0,1-.52,2.87,3.28,3.28,0,0,1-5.55-.07,7.14,7.14,0,0,1-.48-3.31Z" transform="translate(-117.16 -146.78)"/><path id="_Compound_Path_4" data-name="&lt;Compound Path&gt;" class="cls-1" d="M346.88,193.56v19.78h2.36a5,5,0,0,1,3.36.91,3.26,3.26,0,0,1,0,4.72,5,5,0,0,1-3.36.91h-8.58a5,5,0,0,1-3.37-.91,3.27,3.27,0,0,1,0-4.71,4.4,4.4,0,0,1,3.07-.92V187.75h-1a5,5,0,0,1-3.36-.91,3.3,3.3,0,0,1,0-4.75,5,5,0,0,1,3.36-.91l7.57,0,16.72,26.23V187.75h-2.37a5,5,0,0,1-3.36-.91,3.3,3.3,0,0,1,0-4.75,5,5,0,0,1,3.36-.91l8.59,0a5.07,5.07,0,0,1,3.36.89,3,3,0,0,1,1,2.36,3.11,3.11,0,0,1-1,2.37,4.34,4.34,0,0,1-3,.92v32.13h-6.48Z" transform="translate(-117.16 -146.78)"/><path id="_Compound_Path_5" data-name="&lt;Compound Path&gt;" class="cls-1" d="M381,213.34V187.75a4.49,4.49,0,0,1-3.06-.94,3.3,3.3,0,0,1,0-4.72,5,5,0,0,1,3.37-.91l13.69,0a17.14,17.14,0,0,1,6.24,1.18,14.23,14.23,0,0,1,4.89,3,20.78,20.78,0,0,1,2.92,3.76,21.05,21.05,0,0,1,2.28,4.76,18.88,18.88,0,0,1,.77,5.77v3.13a18.22,18.22,0,0,1-1.4,7.35A14.89,14.89,0,0,1,407,215.4a18.9,18.9,0,0,1-4.29,3,19.52,19.52,0,0,1-8.26,1.5H381.27a5,5,0,0,1-3.37-.91,3.31,3.31,0,0,1,0-4.74A4.31,4.31,0,0,1,381,213.34Zm6.54,0h7a12.17,12.17,0,0,0,5.87-1.12,10.14,10.14,0,0,0,3.89-3.73,11.68,11.68,0,0,0,1.31-5.87v-3.1a11.92,11.92,0,0,0-1.18-5.42,11.65,11.65,0,0,0-4.17-5,11.23,11.23,0,0,0-5.79-1.36h-6.89Z" transform="translate(-117.16 -146.78)"/><path id="_Compound_Path_6" data-name="&lt;Compound Path&gt;" class="cls-1" d="M422.85,203.74v9.6h16.69V209.8a5,5,0,0,1,.9-3.37,3.06,3.06,0,0,1,2.38-1,3,3,0,0,1,2.35,1,5,5,0,0,1,.91,3.37v10.08H415.29a5,5,0,0,1-3.37-.91,3.06,3.06,0,0,1-1-2.38,3,3,0,0,1,1-2.34,5,5,0,0,1,3.35-.91h1V187.75h-1a5,5,0,0,1-3.37-.91,3.32,3.32,0,0,1,0-4.75,5,5,0,0,1,3.37-.91l29.35,0v9.95a5,5,0,0,1-.89,3.34,3,3,0,0,1-2.36,1,3.09,3.09,0,0,1-2.38-1,4.87,4.87,0,0,1-.91-3.35v-3.41H422.85v9.44h5.74a7,7,0,0,1,.48-3.28,3.16,3.16,0,0,1,2.81-1.57,3,3,0,0,1,2.34,1,5,5,0,0,1,.91,3.37v7.53a5.52,5.52,0,0,1-.51,2.87,3.28,3.28,0,0,1-5.55-.07,7.14,7.14,0,0,1-.48-3.31Z" transform="translate(-117.16 -146.78)"/><path id="_Compound_Path_7" data-name="&lt;Compound Path&gt;" class="cls-1" d="M470.07,210.34l9.47-22.59H478a5,5,0,0,1-3.36-.91,3.3,3.3,0,0,1,0-4.75,5,5,0,0,1,3.36-.91l8.78,0a5.07,5.07,0,0,1,3.36.89,3,3,0,0,1,1,2.36,3.18,3.18,0,0,1-1.53,2.78,5.87,5.87,0,0,1-3,.51l-13.43,32.13h-6.29l-13.4-32.13a6,6,0,0,1-3-.51,3.12,3.12,0,0,1-1.53-2.78,3,3,0,0,1,1-2.37,5,5,0,0,1,3.37-.91l8.84,0a5,5,0,0,1,3.33.89,3,3,0,0,1,1,2.36,3.09,3.09,0,0,1-1,2.38,4.9,4.9,0,0,1-3.35.91h-1.53Z" transform="translate(-117.16 -146.78)"/><path id="_Compound_Path_8" data-name="&lt;Compound Path&gt;" class="cls-1" d="M494.51,218.22a5.55,5.55,0,0,1-1.39,1.31,2.67,2.67,0,0,1-1.29.29,3.1,3.1,0,0,1-2.41-1,5,5,0,0,1-.91-3.33v-4.41a5,5,0,0,1,.91-3.36,3.1,3.1,0,0,1,2.41-1,3.07,3.07,0,0,1,1.93.61,3.86,3.86,0,0,1,1.2,2,5.58,5.58,0,0,0,.86,1.94,10.43,10.43,0,0,0,3.29,2,12.86,12.86,0,0,0,5.17,1,11.87,11.87,0,0,0,7.18-2.05,3.64,3.64,0,0,0,1.78-3.06,3.53,3.53,0,0,0-.86-2.28,6.25,6.25,0,0,0-2.81-1.77,42.88,42.88,0,0,0-5.71-1.31,31.15,31.15,0,0,1-8.1-2.39,10.85,10.85,0,0,1-4.34-4,10.17,10.17,0,0,1-1.6-5.52,10.72,10.72,0,0,1,3.93-8.21A14.69,14.69,0,0,1,504,180.22a18.62,18.62,0,0,1,4.67.56,12.88,12.88,0,0,1,3.91,1.71,3.72,3.72,0,0,1,2.55-1.25,3,3,0,0,1,2.35,1,5,5,0,0,1,.91,3.33v4.91a5,5,0,0,1-.91,3.37,3,3,0,0,1-2.35,1,3.19,3.19,0,0,1-2.1-.74,3.68,3.68,0,0,1-1.06-2.17,6,6,0,0,0-.89-2.33,7,7,0,0,0-2.78-2,10.36,10.36,0,0,0-4.27-.83,8.76,8.76,0,0,0-5.6,1.64,4.55,4.55,0,0,0-2.06,3.43,3.86,3.86,0,0,0,.85,2.35,5.48,5.48,0,0,0,2.47,1.77,46.82,46.82,0,0,0,6.11,1.44,38.74,38.74,0,0,1,7.72,2.17,10.6,10.6,0,0,1,4.48,3.7,10,10,0,0,1,1.79,6,9.69,9.69,0,0,1-3.41,7.76,17.29,17.29,0,0,1-11.55,3.83,21.1,21.1,0,0,1-5.28-.66A21.63,21.63,0,0,1,494.51,218.22Z" transform="translate(-117.16 -146.78)"/></g><polygon id="_Path_" data-name="&lt;Path&gt;" class="cls-1" points="91.73 79.44 45.87 105.92 0 79.44 0 26.48 45.87 0 91.73 26.48 91.73 79.44"/><path id="_Path_2" data-name="&lt;Path&gt;" class="cls-2" d="M181.52,202.63l15.91-18.24h-13l-13.13,15.42a1.21,1.21,0,0,1-.24.5c-7.79,9.65-13.49,13.31-16.72,14.7a.68.68,0,0,1-.49.05A11.61,11.61,0,0,1,149,216.2c-6.07,0-10.24-4.75-10.24-11.74S142.93,192.8,149,192.8a11.48,11.48,0,0,1,9.08,4.58v11.76l11.12-10.32V169.07H158.08v20.48a15.27,15.27,0,0,0-12.41-6.16c-10.24,0-17.81,8-17.81,21.07,0,13.49,7.74,21.15,17.81,21.15a15.51,15.51,0,0,0,12.41-6.17v5.17H169.2V214.28l4.83-5.16,10.66,15.49h13.24Z" transform="translate(-117.16 -146.78)"/><g id="_Group_2" data-name="&lt;Group&gt;" class="cls-3"><path id="_Path_3" data-name="&lt;Path&gt;" class="cls-1" d="M159,196.76l.18.28v9.52l.75-.69v-8.23l-.19-.28a9.64,9.64,0,0,0-2.38-2.44A9.42,9.42,0,0,1,159,196.76Z" transform="translate(-117.16 -146.78)"/><polygon id="_Path_4" data-name="&lt;Path&gt;" class="cls-1" points="42.79 46.72 42.79 24.02 50.92 24.02 50.92 23.42 42.05 23.42 42.05 45.74 42.79 46.72"/><path id="_Path_5" data-name="&lt;Path&gt;" class="cls-1" d="M154.79,216.05a2,2,0,0,1-.74.16,12.59,12.59,0,0,1-5.05,1.11,10.87,10.87,0,0,1-6.45-2,10.77,10.77,0,0,0,7.2,2.61,12.66,12.66,0,0,0,5.05-1.11,1.92,1.92,0,0,0,.73-.16c3.51-1.51,9.33-5.34,17.16-15a2.42,2.42,0,0,0,.37-.64l12.64-14.85h8.73l.52-.6H185l-12.64,14.85a2.31,2.31,0,0,1-.38.64C164.12,210.71,158.3,214.54,154.79,216.05Z" transform="translate(-117.16 -146.78)"/><polygon id="_Path_6" data-name="&lt;Path&gt;" class="cls-1" points="42.79 70.03 42.05 70.97 42.05 76.7 42.79 76.7 42.79 70.03"/><path id="_Path_7" data-name="&lt;Path&gt;" class="cls-1" d="M129.73,205.06c0-11.93,6.7-19.94,16.69-19.94a14.13,14.13,0,0,1,8.67,2.89,14.12,14.12,0,0,0-9.42-3.49c-10,0-16.69,8-16.69,19.94,0,7.73,2.66,13.71,7.19,17C132.09,218.08,129.73,212.35,129.73,205.06Z" transform="translate(-117.16 -146.78)"/><polygon id="_Path_8" data-name="&lt;Path&gt;" class="cls-1" points="57.75 61.15 57.56 61.36 68.13 76.7 68.46 76.7 57.75 61.15"/></g></svg>